<?xml version="1.0" standalone="no"?>
<!DOCTYPE svg PUBLIC "-//W3C//DTD SVG 20010904//EN"
 "http://www.w3.org/TR/2001/REC-SVG-20010904/DTD/svg10.dtd">
<svg version="1.0" xmlns="http://www.w3.org/2000/svg"
 width="500.000000pt" height="500.000000pt" viewBox="0 0 500.000000 500.000000"
 preserveAspectRatio="xMidYMid meet">

<g transform="translate(0.000000,500.000000) scale(0.100000,-0.100000)"
fill="#000000" stroke="none">
<path d="M2614 3621 c-225 -6 -231 -7 -267 -31 -21 -14 -46 -43 -56 -65 -18
-38 -18 -59 -11 -400 5 -198 9 -466 10 -595 1 -264 7 -295 71 -341 32 -23 42
-24 217 -27 l184 -3 -60 58 c-71 69 -85 94 -77 133 8 37 58 80 93 80 34 0 92
-35 92 -55 0 -16 30 -35 54 -35 10 0 -10 33 -56 95 -45 60 -79 95 -90 95 -26
0 -89 34 -115 62 -51 54 -67 146 -37 216 57 138 225 172 330 66 51 -50 68
-103 59 -178 -5 -41 -3 -55 9 -65 19 -16 22 -1 4 17 -9 9 -7 12 10 12 16 0 22
6 23 23 l0 22 9 -22 c7 -17 17 -23 42 -23 38 0 100 -30 141 -68 15 -14 27 -21
27 -15 0 12 -56 63 -69 63 -4 0 -11 194 -15 431 -6 420 -7 433 -28 471 -12 21
-37 48 -56 60 -41 25 -106 28 -438 19z m389 -378 c4 -104 7 -255 6 -338 0
-141 -1 -147 -13 -102 -28 104 -128 177 -242 177 -75 0 -116 -15 -168 -60
-124 -110 -109 -312 31 -401 l47 -29 -120 0 -121 0 -6 302 c-4 166 -7 375 -7
464 l0 163 148 4 c81 1 213 4 293 5 l146 2 6 -187z"/>
<path d="M2656 2867 c-113 -65 -97 -239 27 -286 27 -10 28 -10 22 11 -4 13
-17 32 -30 43 -32 28 -45 58 -45 103 0 49 29 88 74 101 54 14 84 2 143 -58
l55 -56 -6 35 c-19 108 -143 163 -240 107z"/>
<path d="M3322 2567 c14 -13 30 -32 36 -42 6 -11 13 -17 17 -13 8 7 -53 78
-67 78 -6 0 0 -10 14 -23z"/>
<path d="M2890 2332 c0 -8 73 -33 79 -26 4 3 -62 34 -74 34 -3 0 -5 -3 -5 -8z"/>
<path d="M1780 1610 c0 -33 4 -60 10 -60 6 0 10 9 10 20 0 15 7 20 24 20 35 0
42 18 9 22 -39 4 -42 28 -4 28 21 0 31 5 31 15 0 11 -11 15 -40 15 l-40 0 0
-60z"/>
<path d="M1920 1611 c0 -48 3 -61 15 -61 13 0 15 11 13 57 -4 81 -28 85 -28 4z"/>
<path d="M2010 1658 c0 -6 7 -19 16 -29 15 -17 14 -20 -6 -48 -17 -25 -19 -31
-6 -31 9 0 21 9 28 20 13 20 13 20 29 -1 9 -12 22 -20 28 -18 9 3 6 12 -8 30
-18 23 -19 28 -6 45 25 33 18 50 -9 25 l-24 -23 -11 21 c-13 23 -31 28 -31 9z"/>
<path d="M2263 1615 c-26 -52 -26 -82 -1 -57 15 15 68 16 68 2 0 -5 7 -10 15
-10 8 0 15 2 15 4 0 14 -53 116 -61 116 -5 0 -21 -25 -36 -55z m47 -11 c0 -14
-12 -19 -23 -8 -9 9 4 35 14 28 5 -3 9 -12 9 -20z"/>
<path d="M2407 1663 c-13 -12 -7 -23 13 -23 17 0 20 -7 20 -45 0 -25 5 -45 10
-45 6 0 10 20 10 45 0 38 3 45 20 45 11 0 20 7 20 15 0 11 -11 15 -43 15 -24
0 -47 -3 -50 -7z"/>
<path d="M2630 1657 c0 -7 7 -22 15 -33 8 -10 15 -31 15 -46 0 -18 5 -28 15
-28 8 0 15 9 15 20 0 11 9 34 20 52 22 37 25 48 10 48 -6 0 -16 -11 -22 -25
-6 -14 -14 -25 -18 -25 -4 0 -13 11 -20 25 -14 27 -30 33 -30 12z"/>
<path d="M2820 1663 c-22 -8 -40 -34 -40 -58 0 -47 70 -73 104 -39 45 44 -4
118 -64 97z m55 -44 c9 -28 -16 -53 -44 -44 -20 6 -29 43 -14 58 15 15 52 6
58 -14z"/>
<path d="M2967 1664 c-13 -14 -7 -83 9 -98 20 -21 58 -20 79 0 11 11 15 30 13
58 -4 55 -22 52 -28 -4 -4 -37 -9 -45 -25 -45 -16 0 -21 8 -23 40 -3 41 -13
60 -25 49z"/>
<path d="M3137 1664 c-4 -4 -7 -31 -7 -61 0 -40 4 -53 15 -53 8 0 15 7 15 15
0 8 6 15 14 15 8 0 16 -7 20 -15 3 -8 12 -15 21 -15 12 0 14 4 5 19 -7 13 -7
22 0 26 12 7 13 35 2 52 -9 14 -74 27 -85 17z m61 -41 c-5 -26 -38 -29 -38 -4
0 15 6 21 21 21 14 0 19 -5 17 -17z"/>
</g>
</svg>
